STARTFONT 2.1
FONT --Diamond-Regular-R-Normal--12-120-72-72-P-87-ISO8859-1
SIZE 12 72 72
FONTBOUNDINGBOX 14 12 0 -3
METRICSSET 2
STARTPROPERTIES 17
PIXEL_SIZE 12
RESOLUTION_X 72
RESOLUTION_Y 72
POINT_SIZE 120
FACE_NAME "Diamond Regular 12"
FOUNDRY ""
FAMILY_NAME "Diamond"
WEIGHT_NAME "Regular"
RELATIVE_WEIGHT 50
SLANT "R"
SPACING "P"
SETWIDTH_NAME "Normal"
RELATIVE_SETWIDTH 50
ADD_STYLE_NAME ""
AVERAGE_WIDTH 87
CHARSET_REGISTRY "ISO8859"
CHARSET_ENCODING "1"
ENDPROPERTIES
CHARS 225
STARTCHAR space
ENCODING 32
SWIDTH 750 0
DWIDTH 9 0
BBX 0 0 9 -3
VVECTOR 9 -3
SWIDTH1 0 0
DWIDTH1 0 0
BITMAP 
ENDCHAR
STARTCHAR exclam
ENCODING 33
SWIDTH 417 0
DWIDTH 5 0
BBX 2 9 1 0
VVECTOR 2 9
SWIDTH1 0 -1000
DWIDTH1 0 -12
BITMAP 
C0
C0
C0
C0
C0
C0
00
C0
C0
ENDCHAR
STARTCHAR quotedbl
ENCODING 34
SWIDTH 583 0
DWIDTH 7 0
BBX 6 3 0 6
VVECTOR 3 9
SWIDTH1 0 -1000
DWIDTH1 0 -12
BITMAP 
CC
CC
CC
ENDCHAR
STARTCHAR numbersign
ENCODING 35
SWIDTH 833 0
DWIDTH 10 0
BBX 9 8 0 1
VVECTOR 5 9
SWIDTH1 0 -1000
DWIDTH1 0 -12
BITMAP 
6300
6300
FF80
6300
6300
FF80
6300
6300
ENDCHAR
STARTCHAR dollar
ENCODING 36
SWIDTH 750 0
DWIDTH 9 0
BBX 8 7 0 2
VVECTOR 4 9
SWIDTH1 0 -1000
DWIDTH1 0 -12
BITMAP 
18
7F
C0
7E
03
FE
18
ENDCHAR
STARTCHAR percent
ENCODING 37
SWIDTH 1000 0
DWIDTH 12 0
BBX 11 8 0 1
VVECTOR 6 9
SWIDTH1 0 -1000
DWIDTH1 0 -12
BITMAP 
70C0
D980
7300
0600
0C00
19C0
3360
61C0
ENDCHAR
STARTCHAR ampersand
ENCODING 38
SWIDTH 750 0
DWIDTH 9 0
BBX 8 7 0 0
VVECTOR 4 9
SWIDTH1 0 -1000
DWIDTH1 0 -12
BITMAP 
78
CC
C0
77
C6
C6
7C
ENDCHAR
STARTCHAR quotesingle
ENCODING 39
SWIDTH 417 0
DWIDTH 5 0
BBX 2 3 1 6
VVECTOR 2 9
SWIDTH1 0 -1000
DWIDTH1 0 -12
BITMAP 
C0
C0
C0
ENDCHAR
STARTCHAR parenleft
ENCODING 40
SWIDTH 667 0
DWIDTH 8 0
BBX 7 9 0 0
VVECTOR 4 9
SWIDTH1 0 -1000
DWIDTH1 0 -12
BITMAP 
0E
10
60
C0
C0
C0
60
10
0E
ENDCHAR
STARTCHAR parenright
ENCODING 41
SWIDTH 667 0
DWIDTH 8 0
BBX 7 9 0 0
VVECTOR 4 9
SWIDTH1 0 -1000
DWIDTH1 0 -12
BITMAP 
E0
10
0C
06
06
06
0C
10
E0
ENDCHAR
STARTCHAR asterisk
ENCODING 42
SWIDTH 833 0
DWIDTH 10 0
BBX 9 5 0 2
VVECTOR 5 9
SWIDTH1 0 -1000
DWIDTH1 0 -12
BITMAP 
6300
3600
FF80
3600
6300
ENDCHAR
STARTCHAR plus
ENCODING 43
SWIDTH 750 0
DWIDTH 9 0
BBX 8 5 0 2
VVECTOR 4 9
SWIDTH1 0 -1000
DWIDTH1 0 -12
BITMAP 
18
18
FF
18
18
ENDCHAR
STARTCHAR comma
ENCODING 44
SWIDTH 500 0
DWIDTH 6 0
BBX 4 3 1 -1
VVECTOR 3 9
SWIDTH1 0 -1000
DWIDTH1 0 -12
BITMAP 
30
60
C0
ENDCHAR
STARTCHAR hyphen
ENCODING 45
SWIDTH 750 0
DWIDTH 9 0
BBX 8 1 0 4
VVECTOR 4 9
SWIDTH1 0 -1000
DWIDTH1 0 -12
BITMAP 
FF
ENDCHAR
STARTCHAR period
ENCODING 46
SWIDTH 417 0
DWIDTH 5 0
BBX 2 2 1 0
VVECTOR 2 9
SWIDTH1 0 -1000
DWIDTH1 0 -12
BITMAP 
C0
C0
ENDCHAR
STARTCHAR slash
ENCODING 47
SWIDTH 1000 0
DWIDTH 12 0
BBX 11 10 0 -1
VVECTOR 6 9
SWIDTH1 0 -1000
DWIDTH1 0 -12
BITMAP 
0060
00C0
0180
0300
0600
0C00
1800
3000
6000
C000
ENDCHAR
STARTCHAR zero
ENCODING 48
SWIDTH 750 0
DWIDTH 9 0
BBX 8 9 0 0
VVECTOR 4 9
SWIDTH1 0 -1000
DWIDTH1 0 -12
BITMAP 
7E
C3
E3
D3
CB
C7
C3
C3
7E
ENDCHAR
STARTCHAR one
ENCODING 49
SWIDTH 500 0
DWIDTH 6 0
BBX 3 9 1 0
VVECTOR 3 9
SWIDTH1 0 -1000
DWIDTH1 0 -12
BITMAP 
60
60
E0
60
60
60
60
60
60
ENDCHAR
STARTCHAR two
ENCODING 50
SWIDTH 750 0
DWIDTH 9 0
BBX 8 9 0 0
VVECTOR 4 9
SWIDTH1 0 -1000
DWIDTH1 0 -12
BITMAP 
7C
86
03
06
0C
18
30
60
FE
ENDCHAR
STARTCHAR three
ENCODING 51
SWIDTH 667 0
DWIDTH 8 0
BBX 7 9 0 0
VVECTOR 4 9
SWIDTH1 0 -1000
DWIDTH1 0 -12
BITMAP 
FC
06
06
3C
06
06
06
06
FC
ENDCHAR
STARTCHAR four
ENCODING 52
SWIDTH 750 0
DWIDTH 9 0
BBX 8 9 0 0
VVECTOR 4 9
SWIDTH1 0 -1000
DWIDTH1 0 -12
BITMAP 
06
06
06
C6
C6
FF
06
06
06
ENDCHAR
STARTCHAR five
ENCODING 53
SWIDTH 667 0
DWIDTH 8 0
BBX 7 9 0 0
VVECTOR 4 9
SWIDTH1 0 -1000
DWIDTH1 0 -12
BITMAP 
FE
C0
C0
FC
06
06
06
86
7C
ENDCHAR
STARTCHAR six
ENCODING 54
SWIDTH 750 0
DWIDTH 9 0
BBX 8 9 0 0
VVECTOR 4 9
SWIDTH1 0 -1000
DWIDTH1 0 -12
BITMAP 
38
60
C0
C0
FE
C3
C3
C3
7E
ENDCHAR
STARTCHAR seven
ENCODING 55
SWIDTH 667 0
DWIDTH 8 0
BBX 7 9 0 0
VVECTOR 4 9
SWIDTH1 0 -1000
DWIDTH1 0 -12
BITMAP 
FE
06
06
0C
18
30
30
30
30
ENDCHAR
STARTCHAR eight
ENCODING 56
SWIDTH 750 0
DWIDTH 9 0
BBX 8 9 0 0
VVECTOR 4 9
SWIDTH1 0 -1000
DWIDTH1 0 -12
BITMAP 
7E
C3
C3
7E
C3
C3
C3
C3
7E
ENDCHAR
STARTCHAR nine
ENCODING 57
SWIDTH 750 0
DWIDTH 9 0
BBX 8 9 0 0
VVECTOR 4 9
SWIDTH1 0 -1000
DWIDTH1 0 -12
BITMAP 
7E
C3
C3
7F
03
03
03
03
03
ENDCHAR
STARTCHAR colon
ENCODING 58
SWIDTH 417 0
DWIDTH 5 0
BBX 2 6 1 0
VVECTOR 2 9
SWIDTH1 0 -1000
DWIDTH1 0 -12
BITMAP 
C0
C0
00
00
C0
C0
ENDCHAR
STARTCHAR semicolon
ENCODING 59
SWIDTH 500 0
DWIDTH 6 0
BBX 3 7 1 -1
VVECTOR 3 9
SWIDTH1 0 -1000
DWIDTH1 0 -12
BITMAP 
60
60
00
00
60
60
80
ENDCHAR
STARTCHAR less
ENCODING 60
SWIDTH 833 0
DWIDTH 10 0
BBX 9 7 0 1
VVECTOR 5 9
SWIDTH1 0 -1000
DWIDTH1 0 -12
BITMAP 
0380
0E00
3800
E000
3800
0E00
0380
ENDCHAR
STARTCHAR equal
ENCODING 61
SWIDTH 583 0
DWIDTH 7 0
BBX 6 4 0 2
VVECTOR 3 9
SWIDTH1 0 -1000
DWIDTH1 0 -12
BITMAP 
FC
00
00
FC
ENDCHAR
STARTCHAR greater
ENCODING 62
SWIDTH 750 0
DWIDTH 9 0
BBX 8 7 0 1
VVECTOR 4 9
SWIDTH1 0 -1000
DWIDTH1 0 -12
BITMAP 
C0
70
1C
07
1C
70
C0
ENDCHAR
STARTCHAR question
ENCODING 63
SWIDTH 917 0
DWIDTH 11 0
BBX 8 9 1 0
VVECTOR 5 9
SWIDTH1 0 -1000
DWIDTH1 0 -12
BITMAP 
7E
C3
03
06
0C
0C
00
0C
0C
ENDCHAR
STARTCHAR at
ENCODING 64
SWIDTH 1083 0
DWIDTH 13 0
BBX 12 11 0 -2
VVECTOR 6 9
SWIDTH1 0 -1000
DWIDTH1 0 -12
BITMAP 
1F80
2040
4F20
8190
8F90
9990
9990
9990
4FE0
2000
1F80
ENDCHAR
STARTCHAR A
ENCODING 65
SWIDTH 750 0
DWIDTH 9 0
BBX 8 9 0 0
VVECTOR 4 9
SWIDTH1 0 -1000
DWIDTH1 0 -12
BITMAP 
7E
C3
C3
C3
FF
C3
C3
C3
C3
ENDCHAR
STARTCHAR B
ENCODING 66
SWIDTH 750 0
DWIDTH 9 0
BBX 8 9 0 0
VVECTOR 4 9
SWIDTH1 0 -1000
DWIDTH1 0 -12
BITMAP 
FE
C3
C3
C3
FE
C3
C3
C3
FE
ENDCHAR
STARTCHAR C
ENCODING 67
SWIDTH 750 0
DWIDTH 9 0
BBX 8 9 0 0
VVECTOR 4 9
SWIDTH1 0 -1000
DWIDTH1 0 -12
BITMAP 
7E
C1
C0
C0
C0
C0
C0
C1
7E
ENDCHAR
STARTCHAR D
ENCODING 68
SWIDTH 750 0
DWIDTH 9 0
BBX 8 9 0 0
VVECTOR 4 9
SWIDTH1 0 -1000
DWIDTH1 0 -12
BITMAP 
FE
C3
C3
C3
C3
C3
C3
C3
FE
ENDCHAR
STARTCHAR E
ENCODING 69
SWIDTH 667 0
DWIDTH 8 0
BBX 7 9 0 0
VVECTOR 4 9
SWIDTH1 0 -1000
DWIDTH1 0 -12
BITMAP 
FE
C0
C0
C0
F8
C0
C0
C0
FE
ENDCHAR
STARTCHAR F
ENCODING 70
SWIDTH 667 0
DWIDTH 8 0
BBX 7 9 0 0
VVECTOR 4 9
SWIDTH1 0 -1000
DWIDTH1 0 -12
BITMAP 
FE
C0
C0
C0
F8
C0
C0
C0
C0
ENDCHAR
STARTCHAR G
ENCODING 71
SWIDTH 750 0
DWIDTH 9 0
BBX 8 9 0 0
VVECTOR 4 9
SWIDTH1 0 -1000
DWIDTH1 0 -12
BITMAP 
7E
C1
C0
C0
CF
C3
C3
C3
7E
ENDCHAR
STARTCHAR H
ENCODING 72
SWIDTH 750 0
DWIDTH 9 0
BBX 8 9 0 0
VVECTOR 4 9
SWIDTH1 0 -1000
DWIDTH1 0 -12
BITMAP 
C3
C3
C3
C3
FF
C3
C3
C3
C3
ENDCHAR
STARTCHAR I
ENCODING 73
SWIDTH 417 0
DWIDTH 5 0
BBX 2 9 1 0
VVECTOR 2 9
SWIDTH1 0 -1000
DWIDTH1 0 -12
BITMAP 
C0
C0
C0
C0
C0
C0
C0
C0
C0
ENDCHAR
STARTCHAR J
ENCODING 74
SWIDTH 667 0
DWIDTH 8 0
BBX 7 9 0 0
VVECTOR 4 9
SWIDTH1 0 -1000
DWIDTH1 0 -12
BITMAP 
06
06
06
06
06
06
06
86
7C
ENDCHAR
STARTCHAR K
ENCODING 75
SWIDTH 750 0
DWIDTH 9 0
BBX 8 9 0 0
VVECTOR 4 9
SWIDTH1 0 -1000
DWIDTH1 0 -12
BITMAP 
C3
C6
CC
D8
E0
D8
CC
C6
C3
ENDCHAR
STARTCHAR L
ENCODING 76
SWIDTH 667 0
DWIDTH 8 0
BBX 7 9 0 0
VVECTOR 4 9
SWIDTH1 0 -1000
DWIDTH1 0 -12
BITMAP 
C0
C0
C0
C0
C0
C0
C0
C0
FE
ENDCHAR
STARTCHAR M
ENCODING 77
SWIDTH 833 0
DWIDTH 10 0
BBX 9 9 0 0
VVECTOR 5 9
SWIDTH1 0 -1000
DWIDTH1 0 -12
BITMAP 
8080
C180
E380
F780
DD80
C980
C180
C180
C180
ENDCHAR
STARTCHAR N
ENCODING 78
SWIDTH 750 0
DWIDTH 9 0
BBX 8 9 0 0
VVECTOR 4 9
SWIDTH1 0 -1000
DWIDTH1 0 -12
BITMAP 
83
C3
E3
F3
DB
CF
C7
C3
C1
ENDCHAR
STARTCHAR O
ENCODING 79
SWIDTH 750 0
DWIDTH 9 0
BBX 8 9 0 0
VVECTOR 4 9
SWIDTH1 0 -1000
DWIDTH1 0 -12
BITMAP 
7E
C3
C3
C3
C3
C3
C3
C3
7E
ENDCHAR
STARTCHAR P
ENCODING 80
SWIDTH 750 0
DWIDTH 9 0
BBX 8 9 0 0
VVECTOR 4 9
SWIDTH1 0 -1000
DWIDTH1 0 -12
BITMAP 
FE
C3
C3
C3
FE
C0
C0
C0
C0
ENDCHAR
STARTCHAR Q
ENCODING 81
SWIDTH 833 0
DWIDTH 10 0
BBX 9 10 0 -1
VVECTOR 5 9
SWIDTH1 0 -1000
DWIDTH1 0 -12
BITMAP 
7E00
C300
C300
C300
C300
C300
C300
C300
7E00
0380
ENDCHAR
STARTCHAR R
ENCODING 82
SWIDTH 750 0
DWIDTH 9 0
BBX 8 9 0 0
VVECTOR 4 9
SWIDTH1 0 -1000
DWIDTH1 0 -12
BITMAP 
FE
C3
C3
C3
FE
C3
C3
C3
C3
ENDCHAR
STARTCHAR S
ENCODING 83
SWIDTH 667 0
DWIDTH 8 0
BBX 7 9 0 0
VVECTOR 4 9
SWIDTH1 0 -1000
DWIDTH1 0 -12
BITMAP 
7C
C2
E0
70
38
1C
0E
86
7C
ENDCHAR
STARTCHAR T
ENCODING 84
SWIDTH 750 0
DWIDTH 9 0
BBX 8 9 0 0
VVECTOR 4 9
SWIDTH1 0 -1000
DWIDTH1 0 -12
BITMAP 
FF
18
18
18
18
18
18
18
18
ENDCHAR
STARTCHAR U
ENCODING 85
SWIDTH 750 0
DWIDTH 9 0
BBX 8 9 0 0
VVECTOR 4 9
SWIDTH1 0 -1000
DWIDTH1 0 -12
BITMAP 
C3
C3
C3
C3
C3
C3
C3
C3
7E
ENDCHAR
STARTCHAR V
ENCODING 86
SWIDTH 750 0
DWIDTH 9 0
BBX 8 9 0 0
VVECTOR 4 9
SWIDTH1 0 -1000
DWIDTH1 0 -12
BITMAP 
C3
C3
C3
66
66
3C
3C
18
18
ENDCHAR
STARTCHAR W
ENCODING 87
SWIDTH 1083 0
DWIDTH 13 0
BBX 12 9 0 0
VVECTOR 6 9
SWIDTH1 0 -1000
DWIDTH1 0 -12
BITMAP 
C630
C630
C630
C630
C630
C630
C630
C630
FDE0
ENDCHAR
STARTCHAR X
ENCODING 88
SWIDTH 750 0
DWIDTH 9 0
BBX 8 9 0 0
VVECTOR 4 9
SWIDTH1 0 -1000
DWIDTH1 0 -12
BITMAP 
C3
C3
C3
66
18
66
C3
C3
C3
ENDCHAR
STARTCHAR Y
ENCODING 89
SWIDTH 750 0
DWIDTH 9 0
BBX 8 9 0 0
VVECTOR 4 9
SWIDTH1 0 -1000
DWIDTH1 0 -12
BITMAP 
C3
C3
C3
C3
7E
18
18
18
18
ENDCHAR
STARTCHAR Z
ENCODING 90
SWIDTH 750 0
DWIDTH 9 0
BBX 8 9 0 0
VVECTOR 4 9
SWIDTH1 0 -1000
DWIDTH1 0 -12
BITMAP 
FF
03
06
0C
18
30
60
C0
FF
ENDCHAR
STARTCHAR bracketleft
ENCODING 91
SWIDTH 500 0
DWIDTH 6 0
BBX 5 12 0 -3
VVECTOR 3 9
SWIDTH1 0 -1000
DWIDTH1 0 -12
BITMAP 
F8
C0
C0
C0
C0
C0
C0
C0
C0
C0
C0
F8
ENDCHAR
STARTCHAR backslash
ENCODING 92
SWIDTH 1000 0
DWIDTH 12 0
BBX 11 10 0 -1
VVECTOR 6 9
SWIDTH1 0 -1000
DWIDTH1 0 -12
BITMAP 
C000
6000
3000
1800
0C00
0600
0300
0180
00C0
0060
ENDCHAR
STARTCHAR bracketright
ENCODING 93
SWIDTH 500 0
DWIDTH 6 0
BBX 5 12 0 -3
VVECTOR 3 9
SWIDTH1 0 -1000
DWIDTH1 0 -12
BITMAP 
F8
18
18
18
18
18
18
18
18
18
18
F8
ENDCHAR
STARTCHAR asciicircum
ENCODING 94
SWIDTH 750 0
DWIDTH 9 0
BBX 8 3 0 6
VVECTOR 4 9
SWIDTH1 0 -1000
DWIDTH1 0 -12
BITMAP 
18
66
C3
ENDCHAR
STARTCHAR underscore
ENCODING 95
SWIDTH 833 0
DWIDTH 10 0
BBX 9 1 0 -1
VVECTOR 5 9
SWIDTH1 0 -1000
DWIDTH1 0 -12
BITMAP 
FF80
ENDCHAR
STARTCHAR grave
ENCODING 96
SWIDTH 583 0
DWIDTH 7 0
BBX 4 3 1 6
VVECTOR 3 9
SWIDTH1 0 -1000
DWIDTH1 0 -12
BITMAP 
C0
60
30
ENDCHAR
STARTCHAR a
ENCODING 97
SWIDTH 667 0
DWIDTH 8 0
BBX 7 6 0 0
VVECTOR 4 9
SWIDTH1 0 -1000
DWIDTH1 0 -12
BITMAP 
7C
06
7E
C6
C6
7E
ENDCHAR
STARTCHAR b
ENCODING 98
SWIDTH 667 0
DWIDTH 8 0
BBX 7 9 0 0
VVECTOR 4 9
SWIDTH1 0 -1000
DWIDTH1 0 -12
BITMAP 
C0
C0
C0
FC
C6
C6
C6
C6
FC
ENDCHAR
STARTCHAR c
ENCODING 99
SWIDTH 667 0
DWIDTH 8 0
BBX 7 6 0 0
VVECTOR 4 9
SWIDTH1 0 -1000
DWIDTH1 0 -12
BITMAP 
7C
C2
C0
C0
C2
7C
ENDCHAR
STARTCHAR d
ENCODING 100
SWIDTH 667 0
DWIDTH 8 0
BBX 7 9 0 0
VVECTOR 4 9
SWIDTH1 0 -1000
DWIDTH1 0 -12
BITMAP 
06
06
06
7E
C6
C6
C6
C6
7E
ENDCHAR
STARTCHAR e
ENCODING 101
SWIDTH 667 0
DWIDTH 8 0
BBX 7 6 0 0
VVECTOR 4 9
SWIDTH1 0 -1000
DWIDTH1 0 -12
BITMAP 
7C
C6
FE
C0
C6
7C
ENDCHAR
STARTCHAR f
ENCODING 102
SWIDTH 750 0
DWIDTH 9 0
BBX 6 9 1 0
VVECTOR 4 9
SWIDTH1 0 -1000
DWIDTH1 0 -12
BITMAP 
1C
30
FC
30
30
30
30
30
30
ENDCHAR
STARTCHAR g
ENCODING 103
SWIDTH 667 0
DWIDTH 8 0
BBX 7 9 0 -3
VVECTOR 4 9
SWIDTH1 0 -1000
DWIDTH1 0 -12
BITMAP 
7E
C6
C6
C6
C6
7E
06
86
7C
ENDCHAR
STARTCHAR h
ENCODING 104
SWIDTH 667 0
DWIDTH 8 0
BBX 7 9 0 0
VVECTOR 4 9
SWIDTH1 0 -1000
DWIDTH1 0 -12
BITMAP 
C0
C0
C0
FC
C6
C6
C6
C6
C6
ENDCHAR
STARTCHAR i
ENCODING 105
SWIDTH 417 0
DWIDTH 5 0
BBX 2 9 1 0
VVECTOR 2 9
SWIDTH1 0 -1000
DWIDTH1 0 -12
BITMAP 
C0
00
00
C0
C0
C0
C0
C0
C0
ENDCHAR
STARTCHAR j
ENCODING 106
SWIDTH 417 0
DWIDTH 5 0
BBX 2 12 1 -3
VVECTOR 2 9
SWIDTH1 0 -1000
DWIDTH1 0 -12
BITMAP 
C0
00
00
C0
C0
C0
C0
C0
C0
C0
C0
C0
ENDCHAR
STARTCHAR k
ENCODING 107
SWIDTH 667 0
DWIDTH 8 0
BBX 7 9 0 0
VVECTOR 4 9
SWIDTH1 0 -1000
DWIDTH1 0 -12
BITMAP 
C0
C0
C0
CC
D8
F0
D8
CC
C6
ENDCHAR
STARTCHAR l
ENCODING 108
SWIDTH 417 0
DWIDTH 5 0
BBX 2 9 1 0
VVECTOR 2 9
SWIDTH1 0 -1000
DWIDTH1 0 -12
BITMAP 
C0
C0
C0
C0
C0
C0
C0
C0
C0
ENDCHAR
STARTCHAR m
ENCODING 109
SWIDTH 917 0
DWIDTH 11 0
BBX 10 6 0 0
VVECTOR 5 9
SWIDTH1 0 -1000
DWIDTH1 0 -12
BITMAP 
FF80
CCC0
CCC0
CCC0
CCC0
CCC0
ENDCHAR
STARTCHAR n
ENCODING 110
SWIDTH 667 0
DWIDTH 8 0
BBX 7 6 0 0
VVECTOR 4 9
SWIDTH1 0 -1000
DWIDTH1 0 -12
BITMAP 
FC
C6
C6
C6
C6
C6
ENDCHAR
STARTCHAR o
ENCODING 111
SWIDTH 667 0
DWIDTH 8 0
BBX 7 6 0 0
VVECTOR 4 9
SWIDTH1 0 -1000
DWIDTH1 0 -12
BITMAP 
7C
C6
C6
C6
C6
7C
ENDCHAR
STARTCHAR p
ENCODING 112
SWIDTH 667 0
DWIDTH 8 0
BBX 7 9 0 -3
VVECTOR 4 9
SWIDTH1 0 -1000
DWIDTH1 0 -12
BITMAP 
FC
C6
C6
C6
C6
FC
C0
C0
C0
ENDCHAR
STARTCHAR q
ENCODING 113
SWIDTH 667 0
DWIDTH 8 0
BBX 7 9 0 -3
VVECTOR 4 9
SWIDTH1 0 -1000
DWIDTH1 0 -12
BITMAP 
7C
C6
C6
C6
C6
7E
06
06
06
ENDCHAR
STARTCHAR r
ENCODING 114
SWIDTH 750 0
DWIDTH 9 0
BBX 8 6 0 0
VVECTOR 4 9
SWIDTH1 0 -1000
DWIDTH1 0 -12
BITMAP 
DE
E1
C0
C0
C0
C0
ENDCHAR
STARTCHAR s
ENCODING 115
SWIDTH 667 0
DWIDTH 8 0
BBX 7 6 0 0
VVECTOR 4 9
SWIDTH1 0 -1000
DWIDTH1 0 -12
BITMAP 
7C
C2
70
1C
86
7C
ENDCHAR
STARTCHAR t
ENCODING 116
SWIDTH 750 0
DWIDTH 9 0
BBX 6 9 1 0
VVECTOR 4 9
SWIDTH1 0 -1000
DWIDTH1 0 -12
BITMAP 
30
30
FC
30
30
30
30
30
18
ENDCHAR
STARTCHAR u
ENCODING 117
SWIDTH 667 0
DWIDTH 8 0
BBX 7 6 0 0
VVECTOR 4 9
SWIDTH1 0 -1000
DWIDTH1 0 -12
BITMAP 
C6
C6
C6
C6
C6
7E
ENDCHAR
STARTCHAR v
ENCODING 118
SWIDTH 750 0
DWIDTH 9 0
BBX 8 6 0 0
VVECTOR 4 9
SWIDTH1 0 -1000
DWIDTH1 0 -12
BITMAP 
C3
C3
66
3C
18
18
ENDCHAR
STARTCHAR w
ENCODING 119
SWIDTH 917 0
DWIDTH 11 0
BBX 10 6 0 0
VVECTOR 5 9
SWIDTH1 0 -1000
DWIDTH1 0 -12
BITMAP 
CCC0
CCC0
CCC0
CCC0
CCC0
FF80
ENDCHAR
STARTCHAR x
ENCODING 120
SWIDTH 750 0
DWIDTH 9 0
BBX 8 6 0 0
VVECTOR 4 9
SWIDTH1 0 -1000
DWIDTH1 0 -12
BITMAP 
C3
66
3C
66
C3
C3
ENDCHAR
STARTCHAR y
ENCODING 121
SWIDTH 667 0
DWIDTH 8 0
BBX 7 9 0 -3
VVECTOR 4 9
SWIDTH1 0 -1000
DWIDTH1 0 -12
BITMAP 
C6
C6
C6
C6
C6
7E
06
86
7C
ENDCHAR
STARTCHAR z
ENCODING 122
SWIDTH 667 0
DWIDTH 8 0
BBX 7 6 0 0
VVECTOR 4 9
SWIDTH1 0 -1000
DWIDTH1 0 -12
BITMAP 
FE
0C
18
30
60
FE
ENDCHAR
STARTCHAR braceleft
ENCODING 123
SWIDTH 583 0
DWIDTH 7 0
BBX 6 7 0 1
VVECTOR 3 9
SWIDTH1 0 -1000
DWIDTH1 0 -12
BITMAP 
1C
30
30
E0
30
30
1C
ENDCHAR
STARTCHAR bar
ENCODING 124
SWIDTH 417 0
DWIDTH 5 0
BBX 2 12 1 -3
VVECTOR 2 9
SWIDTH1 0 -1000
DWIDTH1 0 -12
BITMAP 
C0
C0
C0
C0
C0
C0
C0
C0
C0
C0
C0
C0
ENDCHAR
STARTCHAR braceright
ENCODING 125
SWIDTH 583 0
DWIDTH 7 0
BBX 6 7 0 1
VVECTOR 3 9
SWIDTH1 0 -1000
DWIDTH1 0 -12
BITMAP 
E0
30
30
1C
30
30
E0
ENDCHAR
STARTCHAR asciitilde
ENCODING 126
SWIDTH 833 0
DWIDTH 10 0
BBX 9 2 0 7
VVECTOR 5 9
SWIDTH1 0 -1000
DWIDTH1 0 -12
BITMAP 
3980
CE00
ENDCHAR
STARTCHAR char7F
ENCODING 127
SWIDTH 1167 0
DWIDTH 14 0
BBX 14 12 0 -3
VVECTOR 7 9
SWIDTH1 0 -1000
DWIDTH1 0 -12
BITMAP 
CCCC
3330
CCCC
3330
CCCC
3330
CCCC
3330
CCCC
3330
CCCC
3330
ENDCHAR
STARTCHAR char80
ENCODING 128
SWIDTH 750 0
DWIDTH 9 0
BBX 7 10 1 -2
VVECTOR 5 9
SWIDTH1 0 -1000
DWIDTH1 0 -12
BITMAP 
FE
C6
C6
C6
C6
C6
C6
C6
C6
FE
ENDCHAR
STARTCHAR char81
ENCODING 129
SWIDTH 750 0
DWIDTH 9 0
BBX 7 10 1 -2
VVECTOR 5 9
SWIDTH1 0 -1000
DWIDTH1 0 -12
BITMAP 
FE
C6
C6
C6
C6
C6
C6
C6
C6
FE
ENDCHAR
STARTCHAR char82
ENCODING 130
SWIDTH 750 0
DWIDTH 9 0
BBX 7 10 1 -2
VVECTOR 5 9
SWIDTH1 0 -1000
DWIDTH1 0 -12
BITMAP 
FE
C6
C6
C6
C6
C6
C6
C6
C6
FE
ENDCHAR
STARTCHAR char83
ENCODING 131
SWIDTH 750 0
DWIDTH 9 0
BBX 7 10 1 -2
VVECTOR 5 9
SWIDTH1 0 -1000
DWIDTH1 0 -12
BITMAP 
FE
C6
C6
C6
C6
C6
C6
C6
C6
FE
ENDCHAR
STARTCHAR char84
ENCODING 132
SWIDTH 750 0
DWIDTH 9 0
BBX 7 10 1 -2
VVECTOR 5 9
SWIDTH1 0 -1000
DWIDTH1 0 -12
BITMAP 
FE
C6
C6
C6
C6
C6
C6
C6
C6
FE
ENDCHAR
STARTCHAR char85
ENCODING 133
SWIDTH 750 0
DWIDTH 9 0
BBX 7 10 1 -2
VVECTOR 5 9
SWIDTH1 0 -1000
DWIDTH1 0 -12
BITMAP 
FE
C6
C6
C6
C6
C6
C6
C6
C6
FE
ENDCHAR
STARTCHAR char86
ENCODING 134
SWIDTH 750 0
DWIDTH 9 0
BBX 7 10 1 -2
VVECTOR 5 9
SWIDTH1 0 -1000
DWIDTH1 0 -12
BITMAP 
FE
C6
C6
C6
C6
C6
C6
C6
C6
FE
ENDCHAR
STARTCHAR char87
ENCODING 135
SWIDTH 750 0
DWIDTH 9 0
BBX 7 10 1 -2
VVECTOR 5 9
SWIDTH1 0 -1000
DWIDTH1 0 -12
BITMAP 
FE
C6
C6
C6
C6
C6
C6
C6
C6
FE
ENDCHAR
STARTCHAR char88
ENCODING 136
SWIDTH 750 0
DWIDTH 9 0
BBX 7 10 1 -2
VVECTOR 5 9
SWIDTH1 0 -1000
DWIDTH1 0 -12
BITMAP 
FE
C6
C6
C6
C6
C6
C6
C6
C6
FE
ENDCHAR
STARTCHAR char89
ENCODING 137
SWIDTH 750 0
DWIDTH 9 0
BBX 7 10 1 -2
VVECTOR 5 9
SWIDTH1 0 -1000
DWIDTH1 0 -12
BITMAP 
FE
C6
C6
C6
C6
C6
C6
C6
C6
FE
ENDCHAR
STARTCHAR char8A
ENCODING 138
SWIDTH 750 0
DWIDTH 9 0
BBX 7 10 1 -2
VVECTOR 5 9
SWIDTH1 0 -1000
DWIDTH1 0 -12
BITMAP 
FE
C6
C6
C6
C6
C6
C6
C6
C6
FE
ENDCHAR
STARTCHAR char8B
ENCODING 139
SWIDTH 750 0
DWIDTH 9 0
BBX 7 10 1 -2
VVECTOR 5 9
SWIDTH1 0 -1000
DWIDTH1 0 -12
BITMAP 
FE
C6
C6
C6
C6
C6
C6
C6
C6
FE
ENDCHAR
STARTCHAR char8C
ENCODING 140
SWIDTH 750 0
DWIDTH 9 0
BBX 7 10 1 -2
VVECTOR 5 9
SWIDTH1 0 -1000
DWIDTH1 0 -12
BITMAP 
FE
C6
C6
C6
C6
C6
C6
C6
C6
FE
ENDCHAR
STARTCHAR char8D
ENCODING 141
SWIDTH 750 0
DWIDTH 9 0
BBX 7 10 1 -2
VVECTOR 5 9
SWIDTH1 0 -1000
DWIDTH1 0 -12
BITMAP 
FE
C6
C6
C6
C6
C6
C6
C6
C6
FE
ENDCHAR
STARTCHAR char8E
ENCODING 142
SWIDTH 750 0
DWIDTH 9 0
BBX 7 10 1 -2
VVECTOR 5 9
SWIDTH1 0 -1000
DWIDTH1 0 -12
BITMAP 
FE
C6
C6
C6
C6
C6
C6
C6
C6
FE
ENDCHAR
STARTCHAR char8F
ENCODING 143
SWIDTH 750 0
DWIDTH 9 0
BBX 7 10 1 -2
VVECTOR 5 9
SWIDTH1 0 -1000
DWIDTH1 0 -12
BITMAP 
FE
C6
C6
C6
C6
C6
C6
C6
C6
FE
ENDCHAR
STARTCHAR char90
ENCODING 144
SWIDTH 750 0
DWIDTH 9 0
BBX 7 10 1 -2
VVECTOR 5 9
SWIDTH1 0 -1000
DWIDTH1 0 -12
BITMAP 
FE
C6
C6
C6
C6
C6
C6
C6
C6
FE
ENDCHAR
STARTCHAR char91
ENCODING 145
SWIDTH 750 0
DWIDTH 9 0
BBX 7 10 1 -2
VVECTOR 5 9
SWIDTH1 0 -1000
DWIDTH1 0 -12
BITMAP 
FE
C6
C6
C6
C6
C6
C6
C6
C6
FE
ENDCHAR
STARTCHAR char92
ENCODING 146
SWIDTH 750 0
DWIDTH 9 0
BBX 7 10 1 -2
VVECTOR 5 9
SWIDTH1 0 -1000
DWIDTH1 0 -12
BITMAP 
FE
C6
C6
C6
C6
C6
C6
C6
C6
FE
ENDCHAR
STARTCHAR char93
ENCODING 147
SWIDTH 750 0
DWIDTH 9 0
BBX 7 10 1 -2
VVECTOR 5 9
SWIDTH1 0 -1000
DWIDTH1 0 -12
BITMAP 
FE
C6
C6
C6
C6
C6
C6
C6
C6
FE
ENDCHAR
STARTCHAR char94
ENCODING 148
SWIDTH 750 0
DWIDTH 9 0
BBX 7 10 1 -2
VVECTOR 5 9
SWIDTH1 0 -1000
DWIDTH1 0 -12
BITMAP 
FE
C6
C6
C6
C6
C6
C6
C6
C6
FE
ENDCHAR
STARTCHAR char95
ENCODING 149
SWIDTH 750 0
DWIDTH 9 0
BBX 7 10 1 -2
VVECTOR 5 9
SWIDTH1 0 -1000
DWIDTH1 0 -12
BITMAP 
FE
C6
C6
C6
C6
C6
C6
C6
C6
FE
ENDCHAR
STARTCHAR char96
ENCODING 150
SWIDTH 750 0
DWIDTH 9 0
BBX 7 10 1 -2
VVECTOR 5 9
SWIDTH1 0 -1000
DWIDTH1 0 -12
BITMAP 
FE
C6
C6
C6
C6
C6
C6
C6
C6
FE
ENDCHAR
STARTCHAR char97
ENCODING 151
SWIDTH 750 0
DWIDTH 9 0
BBX 7 10 1 -2
VVECTOR 5 9
SWIDTH1 0 -1000
DWIDTH1 0 -12
BITMAP 
FE
C6
C6
C6
C6
C6
C6
C6
C6
FE
ENDCHAR
STARTCHAR char98
ENCODING 152
SWIDTH 750 0
DWIDTH 9 0
BBX 7 10 1 -2
VVECTOR 5 9
SWIDTH1 0 -1000
DWIDTH1 0 -12
BITMAP 
FE
C6
C6
C6
C6
C6
C6
C6
C6
FE
ENDCHAR
STARTCHAR char99
ENCODING 153
SWIDTH 750 0
DWIDTH 9 0
BBX 7 10 1 -2
VVECTOR 5 9
SWIDTH1 0 -1000
DWIDTH1 0 -12
BITMAP 
FE
C6
C6
C6
C6
C6
C6
C6
C6
FE
ENDCHAR
STARTCHAR char9A
ENCODING 154
SWIDTH 750 0
DWIDTH 9 0
BBX 7 10 1 -2
VVECTOR 5 9
SWIDTH1 0 -1000
DWIDTH1 0 -12
BITMAP 
FE
C6
C6
C6
C6
C6
C6
C6
C6
FE
ENDCHAR
STARTCHAR char9B
ENCODING 155
SWIDTH 750 0
DWIDTH 9 0
BBX 7 10 1 -2
VVECTOR 5 9
SWIDTH1 0 -1000
DWIDTH1 0 -12
BITMAP 
FE
C6
C6
C6
C6
C6
C6
C6
C6
FE
ENDCHAR
STARTCHAR char9C
ENCODING 156
SWIDTH 750 0
DWIDTH 9 0
BBX 7 10 1 -2
VVECTOR 5 9
SWIDTH1 0 -1000
DWIDTH1 0 -12
BITMAP 
FE
C6
C6
C6
C6
C6
C6
C6
C6
FE
ENDCHAR
STARTCHAR char9D
ENCODING 157
SWIDTH 750 0
DWIDTH 9 0
BBX 7 10 1 -2
VVECTOR 5 9
SWIDTH1 0 -1000
DWIDTH1 0 -12
BITMAP 
FE
C6
C6
C6
C6
C6
C6
C6
C6
FE
ENDCHAR
STARTCHAR char9E
ENCODING 158
SWIDTH 750 0
DWIDTH 9 0
BBX 7 10 1 -2
VVECTOR 5 9
SWIDTH1 0 -1000
DWIDTH1 0 -12
BITMAP 
FE
C6
C6
C6
C6
C6
C6
C6
C6
FE
ENDCHAR
STARTCHAR char9F
ENCODING 159
SWIDTH 750 0
DWIDTH 9 0
BBX 7 10 1 -2
VVECTOR 5 9
SWIDTH1 0 -1000
DWIDTH1 0 -12
BITMAP 
FE
C6
C6
C6
C6
C6
C6
C6
C6
FE
ENDCHAR
STARTCHAR uni00A0
ENCODING 160
SWIDTH 750 0
DWIDTH 9 0
BBX 7 10 1 -2
VVECTOR 5 9
SWIDTH1 0 -1000
DWIDTH1 0 -12
BITMAP 
FE
C6
C6
C6
C6
C6
C6
C6
C6
FE
ENDCHAR
STARTCHAR exclamdown
ENCODING 161
SWIDTH 583 0
DWIDTH 7 0
BBX 2 9 2 0
VVECTOR 3 9
SWIDTH1 0 -1000
DWIDTH1 0 -12
BITMAP 
C0
C0
00
C0
C0
C0
C0
C0
C0
ENDCHAR
STARTCHAR cent
ENCODING 162
SWIDTH 750 0
DWIDTH 9 0
BBX 8 6 0 2
VVECTOR 4 9
SWIDTH1 0 -1000
DWIDTH1 0 -12
BITMAP 
0C
7F
CC
CC
7F
0C
ENDCHAR
STARTCHAR sterling
ENCODING 163
SWIDTH 833 0
DWIDTH 10 0
BBX 9 9 0 0
VVECTOR 5 9
SWIDTH1 0 -1000
DWIDTH1 0 -12
BITMAP 
1E00
3000
3000
3000
FE00
3000
3000
3000
3F80
ENDCHAR
STARTCHAR currency
ENCODING 164
SWIDTH 667 0
DWIDTH 8 0
BBX 7 6 0 2
VVECTOR 4 9
SWIDTH1 0 -1000
DWIDTH1 0 -12
BITMAP 
C6
7C
C6
C6
7C
C6
ENDCHAR
STARTCHAR yen
ENCODING 165
SWIDTH 750 0
DWIDTH 9 0
BBX 8 9 0 0
VVECTOR 4 9
SWIDTH1 0 -1000
DWIDTH1 0 -12
BITMAP 
C3
C3
C3
C3
7E
18
FF
18
18
ENDCHAR
STARTCHAR brokenbar
ENCODING 166
SWIDTH 417 0
DWIDTH 5 0
BBX 2 9 1 0
VVECTOR 2 9
SWIDTH1 0 -1000
DWIDTH1 0 -12
BITMAP 
C0
C0
C0
C0
00
C0
C0
C0
C0
ENDCHAR
STARTCHAR section
ENCODING 167
SWIDTH 833 0
DWIDTH 10 0
BBX 9 10 0 -1
VVECTOR 5 9
SWIDTH1 0 -1000
DWIDTH1 0 -12
BITMAP 
7E00
C100
C000
7F00
C180
C180
7F00
0180
4180
3F00
ENDCHAR
STARTCHAR dieresis
ENCODING 168
SWIDTH 667 0
DWIDTH 8 0
BBX 7 2 0 7
VVECTOR 4 9
SWIDTH1 0 -1000
DWIDTH1 0 -12
BITMAP 
C6
C6
ENDCHAR
STARTCHAR copyright
ENCODING 169
SWIDTH 1083 0
DWIDTH 13 0
BBX 12 9 0 -1
VVECTOR 6 9
SWIDTH1 0 -1000
DWIDTH1 0 -12
BITMAP 
3FC0
4020
8F10
9890
9810
9890
8F10
4020
3FC0
ENDCHAR
STARTCHAR ordfeminine
ENCODING 170
SWIDTH 667 0
DWIDTH 8 0
BBX 7 7 0 2
VVECTOR 4 9
SWIDTH1 0 -1000
DWIDTH1 0 -12
BITMAP 
7C
06
7E
C6
7E
00
FE
ENDCHAR
STARTCHAR guillemotleft
ENCODING 171
SWIDTH 1250 0
DWIDTH 15 0
BBX 14 7 0 1
VVECTOR 7 9
SWIDTH1 0 -1000
DWIDTH1 0 -12
BITMAP 
030C
0E38
38E0
E380
38E0
0E38
030C
ENDCHAR
STARTCHAR logicalnot
ENCODING 172
SWIDTH 750 0
DWIDTH 9 0
BBX 8 3 0 6
VVECTOR 4 9
SWIDTH1 0 -1000
DWIDTH1 0 -12
BITMAP 
FF
03
03
ENDCHAR
STARTCHAR uni00AD
ENCODING 173
SWIDTH 750 0
DWIDTH 9 0
BBX 8 1 0 3
VVECTOR 4 9
SWIDTH1 0 -1000
DWIDTH1 0 -12
BITMAP 
FF
ENDCHAR
STARTCHAR registered
ENCODING 174
SWIDTH 1250 0
DWIDTH 15 0
BBX 14 10 0 -1
VVECTOR 7 9
SWIDTH1 0 -1000
DWIDTH1 0 -12
BITMAP 
3FF0
6018
CFCC
CCCC
CF8C
CCCC
CCCC
CCCC
6018
3FF0
ENDCHAR
STARTCHAR macron
ENCODING 175
SWIDTH 750 0
DWIDTH 9 0
BBX 8 1 0 8
VVECTOR 4 9
SWIDTH1 0 -1000
DWIDTH1 0 -12
BITMAP 
FF
ENDCHAR
STARTCHAR degree
ENCODING 176
SWIDTH 667 0
DWIDTH 8 0
BBX 7 4 0 5
VVECTOR 4 9
SWIDTH1 0 -1000
DWIDTH1 0 -12
BITMAP 
7C
C6
C6
7C
ENDCHAR
STARTCHAR plusminus
ENCODING 177
SWIDTH 750 0
DWIDTH 9 0
BBX 8 7 0 1
VVECTOR 4 9
SWIDTH1 0 -1000
DWIDTH1 0 -12
BITMAP 
18
18
FF
18
18
00
FF
ENDCHAR
STARTCHAR uni00B2
ENCODING 178
SWIDTH 583 0
DWIDTH 7 0
BBX 6 6 0 3
VVECTOR 3 9
SWIDTH1 0 -1000
DWIDTH1 0 -12
BITMAP 
78
8C
18
30
60
FC
ENDCHAR
STARTCHAR uni00B3
ENCODING 179
SWIDTH 500 0
DWIDTH 6 0
BBX 5 6 0 3
VVECTOR 3 9
SWIDTH1 0 -1000
DWIDTH1 0 -12
BITMAP 
F0
18
70
18
18
F0
ENDCHAR
STARTCHAR acute
ENCODING 180
SWIDTH 583 0
DWIDTH 7 0
BBX 4 3 1 6
VVECTOR 3 9
SWIDTH1 0 -1000
DWIDTH1 0 -12
BITMAP 
30
60
C0
ENDCHAR
STARTCHAR mu
ENCODING 181
SWIDTH 917 0
DWIDTH 11 0
BBX 10 9 0 -3
VVECTOR 5 9
SWIDTH1 0 -1000
DWIDTH1 0 -12
BITMAP 
C300
C300
C300
C300
E300
DEC0
C000
C000
C000
ENDCHAR
STARTCHAR paragraph
ENCODING 182
SWIDTH 1000 0
DWIDTH 12 0
BBX 11 9 0 0
VVECTOR 6 9
SWIDTH1 0 -1000
DWIDTH1 0 -12
BITMAP 
7FE0
F980
F980
F980
7980
1980
1980
1980
1F80
ENDCHAR
STARTCHAR periodcentered
ENCODING 183
SWIDTH 500 0
DWIDTH 6 0
BBX 5 3 0 3
VVECTOR 3 9
SWIDTH1 0 -1000
DWIDTH1 0 -12
BITMAP 
F8
F8
F8
ENDCHAR
STARTCHAR cedilla
ENCODING 184
SWIDTH 500 0
DWIDTH 6 0
BBX 3 2 1 -2
VVECTOR 3 9
SWIDTH1 0 -1000
DWIDTH1 0 -12
BITMAP 
60
C0
ENDCHAR
STARTCHAR uni00B9
ENCODING 185
SWIDTH 500 0
DWIDTH 6 0
BBX 3 5 1 4
VVECTOR 3 9
SWIDTH1 0 -1000
DWIDTH1 0 -12
BITMAP 
60
E0
60
60
60
ENDCHAR
STARTCHAR ordmasculine
ENCODING 186
SWIDTH 667 0
DWIDTH 8 0
BBX 7 7 0 2
VVECTOR 4 9
SWIDTH1 0 -1000
DWIDTH1 0 -12
BITMAP 
7C
C6
C6
C6
7C
00
FE
ENDCHAR
STARTCHAR guillemotright
ENCODING 187
SWIDTH 1250 0
DWIDTH 15 0
BBX 14 7 0 1
VVECTOR 7 9
SWIDTH1 0 -1000
DWIDTH1 0 -12
BITMAP 
C300
71C0
1C70
071C
1C70
71C0
C300
ENDCHAR
STARTCHAR onequarter
ENCODING 188
SWIDTH 1083 0
DWIDTH 13 0
BBX 12 9 0 0
VVECTOR 6 9
SWIDTH1 0 -1000
DWIDTH1 0 -12
BITMAP 
60C0
E180
6300
6630
6C30
1B30
3330
63F0
C030
ENDCHAR
STARTCHAR onehalf
ENCODING 189
SWIDTH 1167 0
DWIDTH 14 0
BBX 13 9 0 0
VVECTOR 7 9
SWIDTH1 0 -1000
DWIDTH1 0 -12
BITMAP 
60C0
E180
6300
66F0
6D18
1830
3060
60C0
C1F8
ENDCHAR
STARTCHAR threequarters
ENCODING 190
SWIDTH 1250 0
DWIDTH 15 0
BBX 14 9 0 0
VVECTOR 7 9
SWIDTH1 0 -1000
DWIDTH1 0 -12
BITMAP 
F030
1860
70C0
198C
1B0C
F6CC
0CCC
18FC
300C
ENDCHAR
STARTCHAR questiondown
ENCODING 191
SWIDTH 750 0
DWIDTH 9 0
BBX 8 9 0 0
VVECTOR 4 9
SWIDTH1 0 -1000
DWIDTH1 0 -12
BITMAP 
30
30
00
30
30
60
C0
C3
7E
ENDCHAR
STARTCHAR Agrave
ENCODING 192
SWIDTH 750 0
DWIDTH 9 0
BBX 8 9 0 0
VVECTOR 4 9
SWIDTH1 0 -1000
DWIDTH1 0 -12
BITMAP 
30
18
7E
C3
C3
FF
C3
C3
C3
ENDCHAR
STARTCHAR Aacute
ENCODING 193
SWIDTH 750 0
DWIDTH 9 0
BBX 8 9 0 0
VVECTOR 4 9
SWIDTH1 0 -1000
DWIDTH1 0 -12
BITMAP 
0C
18
7E
C3
C3
FF
C3
C3
C3
ENDCHAR
STARTCHAR Acircumflex
ENCODING 194
SWIDTH 750 0
DWIDTH 9 0
BBX 8 9 0 0
VVECTOR 4 9
SWIDTH1 0 -1000
DWIDTH1 0 -12
BITMAP 
18
24
7E
C3
C3
FF
C3
C3
C3
ENDCHAR
STARTCHAR Atilde
ENCODING 195
SWIDTH 833 0
DWIDTH 10 0
BBX 9 9 0 0
VVECTOR 5 9
SWIDTH1 0 -1000
DWIDTH1 0 -12
BITMAP 
7880
8F00
7E00
C300
C300
FF00
C300
C300
C300
ENDCHAR
STARTCHAR Adieresis
ENCODING 196
SWIDTH 750 0
DWIDTH 9 0
BBX 8 9 0 0
VVECTOR 4 9
SWIDTH1 0 -1000
DWIDTH1 0 -12
BITMAP 
66
00
7E
C3
C3
FF
C3
C3
C3
ENDCHAR
STARTCHAR Aring
ENCODING 197
SWIDTH 750 0
DWIDTH 9 0
BBX 8 9 0 0
VVECTOR 4 9
SWIDTH1 0 -1000
DWIDTH1 0 -12
BITMAP 
7E
C3
7E
C3
C3
FF
C3
C3
C3
ENDCHAR
STARTCHAR AE
ENCODING 198
SWIDTH 1000 0
DWIDTH 12 0
BBX 11 9 0 0
VVECTOR 6 9
SWIDTH1 0 -1000
DWIDTH1 0 -12
BITMAP 
7FE0
C600
C600
C600
FFC0
C600
C600
C600
C7E0
ENDCHAR
STARTCHAR Ccedilla
ENCODING 199
SWIDTH 750 0
DWIDTH 9 0
BBX 8 11 0 -2
VVECTOR 4 9
SWIDTH1 0 -1000
DWIDTH1 0 -12
BITMAP 
7E
C1
C0
C0
C0
C0
C0
C1
7E
18
30
ENDCHAR
STARTCHAR Egrave
ENCODING 200
SWIDTH 667 0
DWIDTH 8 0
BBX 7 9 0 0
VVECTOR 4 9
SWIDTH1 0 -1000
DWIDTH1 0 -12
BITMAP 
30
18
FE
C0
C0
F8
C0
C0
FE
ENDCHAR
STARTCHAR Eacute
ENCODING 201
SWIDTH 667 0
DWIDTH 8 0
BBX 7 9 0 0
VVECTOR 4 9
SWIDTH1 0 -1000
DWIDTH1 0 -12
BITMAP 
18
30
FE
C0
C0
F8
C0
C0
FE
ENDCHAR
STARTCHAR Ecircumflex
ENCODING 202
SWIDTH 667 0
DWIDTH 8 0
BBX 7 9 0 0
VVECTOR 4 9
SWIDTH1 0 -1000
DWIDTH1 0 -12
BITMAP 
30
CC
FE
C0
C0
F8
C0
C0
FE
ENDCHAR
STARTCHAR Edieresis
ENCODING 203
SWIDTH 667 0
DWIDTH 8 0
BBX 7 9 0 0
VVECTOR 4 9
SWIDTH1 0 -1000
DWIDTH1 0 -12
BITMAP 
C6
00
FE
C0
C0
F8
C0
C0
FE
ENDCHAR
STARTCHAR Igrave
ENCODING 204
SWIDTH 500 0
DWIDTH 6 0
BBX 3 9 1 0
VVECTOR 3 9
SWIDTH1 0 -1000
DWIDTH1 0 -12
BITMAP 
C0
60
00
60
60
60
60
60
60
ENDCHAR
STARTCHAR Iacute
ENCODING 205
SWIDTH 500 0
DWIDTH 6 0
BBX 3 9 1 0
VVECTOR 3 9
SWIDTH1 0 -1000
DWIDTH1 0 -12
BITMAP 
60
C0
00
C0
C0
C0
C0
C0
C0
ENDCHAR
STARTCHAR Icircumflex
ENCODING 206
SWIDTH 750 0
DWIDTH 9 0
BBX 8 9 0 0
VVECTOR 4 9
SWIDTH1 0 -1000
DWIDTH1 0 -12
BITMAP 
18
66
C3
18
18
18
18
18
18
ENDCHAR
STARTCHAR Idieresis
ENCODING 207
SWIDTH 583 0
DWIDTH 7 0
BBX 6 9 0 0
VVECTOR 3 9
SWIDTH1 0 -1000
DWIDTH1 0 -12
BITMAP 
CC
00
30
30
30
30
30
30
30
ENDCHAR
STARTCHAR Eth
ENCODING 208
SWIDTH 917 0
DWIDTH 11 0
BBX 10 9 0 0
VVECTOR 5 9
SWIDTH1 0 -1000
DWIDTH1 0 -12
BITMAP 
3F80
30C0
30C0
30C0
FCC0
30C0
30C0
30C0
3F80
ENDCHAR
STARTCHAR Ntilde
ENCODING 209
SWIDTH 750 0
DWIDTH 9 0
BBX 8 9 0 0
VVECTOR 4 9
SWIDTH1 0 -1000
DWIDTH1 0 -12
BITMAP 
71
9E
C3
E3
F3
DB
CF
C7
C3
ENDCHAR
STARTCHAR Ograve
ENCODING 210
SWIDTH 750 0
DWIDTH 9 0
BBX 8 9 0 0
VVECTOR 4 9
SWIDTH1 0 -1000
DWIDTH1 0 -12
BITMAP 
30
18
7E
C3
C3
C3
C3
C3
7E
ENDCHAR
STARTCHAR Oacute
ENCODING 211
SWIDTH 750 0
DWIDTH 9 0
BBX 8 9 0 0
VVECTOR 4 9
SWIDTH1 0 -1000
DWIDTH1 0 -12
BITMAP 
0C
18
7E
C3
C3
C3
C3
C3
7E
ENDCHAR
STARTCHAR Ocircumflex
ENCODING 212
SWIDTH 750 0
DWIDTH 9 0
BBX 8 9 0 0
VVECTOR 4 9
SWIDTH1 0 -1000
DWIDTH1 0 -12
BITMAP 
18
66
7E
C3
C3
C3
C3
C3
7E
ENDCHAR
STARTCHAR Otilde
ENCODING 213
SWIDTH 750 0
DWIDTH 9 0
BBX 8 9 0 0
VVECTOR 4 9
SWIDTH1 0 -1000
DWIDTH1 0 -12
BITMAP 
71
9E
7E
C3
C3
C3
C3
C3
7E
ENDCHAR
STARTCHAR Odieresis
ENCODING 214
SWIDTH 750 0
DWIDTH 9 0
BBX 8 9 0 0
VVECTOR 4 9
SWIDTH1 0 -1000
DWIDTH1 0 -12
BITMAP 
66
00
7E
C3
C3
C3
C3
C3
7E
ENDCHAR
STARTCHAR multiply
ENCODING 215
SWIDTH 667 0
DWIDTH 8 0
BBX 7 5 0 2
VVECTOR 4 9
SWIDTH1 0 -1000
DWIDTH1 0 -12
BITMAP 
C6
6C
38
6C
C6
ENDCHAR
STARTCHAR Oslash
ENCODING 216
SWIDTH 917 0
DWIDTH 11 0
BBX 10 9 0 0
VVECTOR 5 9
SWIDTH1 0 -1000
DWIDTH1 0 -12
BITMAP 
3F40
6180
6380
6580
6980
7180
6180
6180
BF00
ENDCHAR
STARTCHAR Ugrave
ENCODING 217
SWIDTH 750 0
DWIDTH 9 0
BBX 8 9 0 0
VVECTOR 4 9
SWIDTH1 0 -1000
DWIDTH1 0 -12
BITMAP 
30
18
C3
C3
C3
C3
C3
C3
7E
ENDCHAR
STARTCHAR Uacute
ENCODING 218
SWIDTH 750 0
DWIDTH 9 0
BBX 8 9 0 0
VVECTOR 4 9
SWIDTH1 0 -1000
DWIDTH1 0 -12
BITMAP 
0C
18
C3
C3
C3
C3
C3
C3
7E
ENDCHAR
STARTCHAR Ucircumflex
ENCODING 219
SWIDTH 750 0
DWIDTH 9 0
BBX 8 9 0 0
VVECTOR 4 9
SWIDTH1 0 -1000
DWIDTH1 0 -12
BITMAP 
18
66
C3
C3
C3
C3
C3
C3
7E
ENDCHAR
STARTCHAR Udieresis
ENCODING 220
SWIDTH 750 0
DWIDTH 9 0
BBX 8 9 0 0
VVECTOR 4 9
SWIDTH1 0 -1000
DWIDTH1 0 -12
BITMAP 
C3
00
C3
C3
C3
C3
C3
C3
7E
ENDCHAR
STARTCHAR Yacute
ENCODING 221
SWIDTH 750 0
DWIDTH 9 0
BBX 8 9 0 0
VVECTOR 4 9
SWIDTH1 0 -1000
DWIDTH1 0 -12
BITMAP 
0C
18
C3
C3
C3
7E
18
18
18
ENDCHAR
STARTCHAR Thorn
ENCODING 222
SWIDTH 833 0
DWIDTH 10 0
BBX 9 12 0 -3
VVECTOR 5 9
SWIDTH1 0 -1000
DWIDTH1 0 -12
BITMAP 
F000
6000
7F00
6180
6180
6180
7F00
6000
6000
6000
6000
F000
ENDCHAR
STARTCHAR germandbls
ENCODING 223
SWIDTH 750 0
DWIDTH 9 0
BBX 8 12 0 -3
VVECTOR 4 9
SWIDTH1 0 -1000
DWIDTH1 0 -12
BITMAP 
FE
C3
C3
C3
CE
C3
C3
C3
CE
C0
C0
C0
ENDCHAR
STARTCHAR agrave
ENCODING 224
SWIDTH 667 0
DWIDTH 8 0
BBX 7 9 0 0
VVECTOR 4 9
SWIDTH1 0 -1000
DWIDTH1 0 -12
BITMAP 
60
30
00
7C
06
7E
C6
C6
7E
ENDCHAR
STARTCHAR aacute
ENCODING 225
SWIDTH 667 0
DWIDTH 8 0
BBX 7 9 0 0
VVECTOR 4 9
SWIDTH1 0 -1000
DWIDTH1 0 -12
BITMAP 
18
30
00
7C
06
7E
C6
C6
7E
ENDCHAR
STARTCHAR acircumflex
ENCODING 226
SWIDTH 750 0
DWIDTH 9 0
BBX 8 9 0 0
VVECTOR 4 9
SWIDTH1 0 -1000
DWIDTH1 0 -12
BITMAP 
18
66
81
7C
06
7E
C6
C6
7E
ENDCHAR
STARTCHAR atilde
ENCODING 227
SWIDTH 750 0
DWIDTH 9 0
BBX 8 9 0 0
VVECTOR 4 9
SWIDTH1 0 -1000
DWIDTH1 0 -12
BITMAP 
79
8E
00
7C
06
7E
C6
C6
7E
ENDCHAR
STARTCHAR adieresis
ENCODING 228
SWIDTH 667 0
DWIDTH 8 0
BBX 7 8 0 0
VVECTOR 4 9
SWIDTH1 0 -1000
DWIDTH1 0 -12
BITMAP 
C6
00
7C
06
7E
C6
C6
7E
ENDCHAR
STARTCHAR aring
ENCODING 229
SWIDTH 667 0
DWIDTH 8 0
BBX 7 8 0 0
VVECTOR 4 9
SWIDTH1 0 -1000
DWIDTH1 0 -12
BITMAP 
7C
C6
7C
06
7E
C6
C6
7E
ENDCHAR
STARTCHAR ae
ENCODING 230
SWIDTH 1083 0
DWIDTH 13 0
BBX 12 6 0 0
VVECTOR 6 9
SWIDTH1 0 -1000
DWIDTH1 0 -12
BITMAP 
7DE0
0630
7FF0
C600
C630
7DE0
ENDCHAR
STARTCHAR ccedilla
ENCODING 231
SWIDTH 667 0
DWIDTH 8 0
BBX 7 8 0 -2
VVECTOR 4 9
SWIDTH1 0 -1000
DWIDTH1 0 -12
BITMAP 
7C
C2
C0
C0
C2
7C
18
30
ENDCHAR
STARTCHAR egrave
ENCODING 232
SWIDTH 667 0
DWIDTH 8 0
BBX 7 9 0 0
VVECTOR 4 9
SWIDTH1 0 -1000
DWIDTH1 0 -12
BITMAP 
60
30
00
7C
C6
FE
C0
C6
7C
ENDCHAR
STARTCHAR eacute
ENCODING 233
SWIDTH 667 0
DWIDTH 8 0
BBX 7 9 0 0
VVECTOR 4 9
SWIDTH1 0 -1000
DWIDTH1 0 -12
BITMAP 
0C
18
00
7C
C6
FE
C0
C6
7C
ENDCHAR
STARTCHAR ecircumflex
ENCODING 234
SWIDTH 750 0
DWIDTH 9 0
BBX 8 9 0 0
VVECTOR 4 9
SWIDTH1 0 -1000
DWIDTH1 0 -12
BITMAP 
18
66
81
7C
C6
FE
C0
C6
7C
ENDCHAR
STARTCHAR edieresis
ENCODING 235
SWIDTH 667 0
DWIDTH 8 0
BBX 7 8 0 0
VVECTOR 4 9
SWIDTH1 0 -1000
DWIDTH1 0 -12
BITMAP 
C6
00
7C
C6
FE
C0
C6
7C
ENDCHAR
STARTCHAR igrave
ENCODING 236
SWIDTH 500 0
DWIDTH 6 0
BBX 4 9 1 0
VVECTOR 3 9
SWIDTH1 0 -1000
DWIDTH1 0 -12
BITMAP 
C0
60
30
00
60
60
60
60
60
ENDCHAR
STARTCHAR iacute
ENCODING 237
SWIDTH 500 0
DWIDTH 6 0
BBX 4 9 1 0
VVECTOR 3 9
SWIDTH1 0 -1000
DWIDTH1 0 -12
BITMAP 
30
60
C0
00
60
60
60
60
60
ENDCHAR
STARTCHAR icircumflex
ENCODING 238
SWIDTH 750 0
DWIDTH 9 0
BBX 8 9 0 0
VVECTOR 4 9
SWIDTH1 0 -1000
DWIDTH1 0 -12
BITMAP 
18
66
C3
00
18
18
18
18
18
ENDCHAR
STARTCHAR idieresis
ENCODING 239
SWIDTH 583 0
DWIDTH 7 0
BBX 6 8 0 0
VVECTOR 3 9
SWIDTH1 0 -1000
DWIDTH1 0 -12
BITMAP 
CC
00
30
30
30
30
30
30
ENDCHAR
STARTCHAR eth
ENCODING 240
SWIDTH 833 0
DWIDTH 10 0
BBX 9 9 0 0
VVECTOR 5 9
SWIDTH1 0 -1000
DWIDTH1 0 -12
BITMAP 
0600
1F80
0600
7E00
C600
C600
C600
C600
7E00
ENDCHAR
STARTCHAR ntilde
ENCODING 241
SWIDTH 667 0
DWIDTH 8 0
BBX 7 9 0 0
VVECTOR 4 9
SWIDTH1 0 -1000
DWIDTH1 0 -12
BITMAP 
72
9C
00
FC
C6
C6
C6
C6
C6
ENDCHAR
STARTCHAR ograve
ENCODING 242
SWIDTH 667 0
DWIDTH 8 0
BBX 7 9 0 0
VVECTOR 4 9
SWIDTH1 0 -1000
DWIDTH1 0 -12
BITMAP 
30
18
00
7C
C6
C6
C6
C6
7C
ENDCHAR
STARTCHAR oacute
ENCODING 243
SWIDTH 667 0
DWIDTH 8 0
BBX 7 9 0 0
VVECTOR 4 9
SWIDTH1 0 -1000
DWIDTH1 0 -12
BITMAP 
18
30
00
7C
C6
C6
C6
C6
7C
ENDCHAR
STARTCHAR ocircumflex
ENCODING 244
SWIDTH 667 0
DWIDTH 8 0
BBX 7 9 0 0
VVECTOR 4 9
SWIDTH1 0 -1000
DWIDTH1 0 -12
BITMAP 
10
6C
82
7C
C6
C6
C6
C6
7C
ENDCHAR
STARTCHAR otilde
ENCODING 245
SWIDTH 667 0
DWIDTH 8 0
BBX 7 9 0 0
VVECTOR 4 9
SWIDTH1 0 -1000
DWIDTH1 0 -12
BITMAP 
72
9C
00
7C
C6
C6
C6
C6
7C
ENDCHAR
STARTCHAR odieresis
ENCODING 246
SWIDTH 667 0
DWIDTH 8 0
BBX 7 8 0 0
VVECTOR 4 9
SWIDTH1 0 -1000
DWIDTH1 0 -12
BITMAP 
C6
00
7C
C6
C6
C6
C6
7C
ENDCHAR
STARTCHAR divide
ENCODING 247
SWIDTH 750 0
DWIDTH 9 0
BBX 8 5 0 2
VVECTOR 4 9
SWIDTH1 0 -1000
DWIDTH1 0 -12
BITMAP 
18
00
FF
00
18
ENDCHAR
STARTCHAR oslash
ENCODING 248
SWIDTH 750 0
DWIDTH 9 0
BBX 8 8 0 -1
VVECTOR 4 9
SWIDTH1 0 -1000
DWIDTH1 0 -12
BITMAP 
01
7E
C6
CE
D6
E6
7C
80
ENDCHAR
STARTCHAR ugrave
ENCODING 249
SWIDTH 667 0
DWIDTH 8 0
BBX 7 9 0 0
VVECTOR 4 9
SWIDTH1 0 -1000
DWIDTH1 0 -12
BITMAP 
30
18
00
C6
C6
C6
C6
C6
7E
ENDCHAR
STARTCHAR uacute
ENCODING 250
SWIDTH 667 0
DWIDTH 8 0
BBX 7 9 0 0
VVECTOR 4 9
SWIDTH1 0 -1000
DWIDTH1 0 -12
BITMAP 
18
30
00
C6
C6
C6
C6
C6
7E
ENDCHAR
STARTCHAR ucircumflex
ENCODING 251
SWIDTH 750 0
DWIDTH 9 0
BBX 8 9 0 0
VVECTOR 4 9
SWIDTH1 0 -1000
DWIDTH1 0 -12
BITMAP 
18
66
81
C6
C6
C6
C6
C6
7E
ENDCHAR
STARTCHAR udieresis
ENCODING 252
SWIDTH 667 0
DWIDTH 8 0
BBX 7 8 0 0
VVECTOR 4 9
SWIDTH1 0 -1000
DWIDTH1 0 -12
BITMAP 
C6
00
C6
C6
C6
C6
C6
7E
ENDCHAR
STARTCHAR yacute
ENCODING 253
SWIDTH 667 0
DWIDTH 8 0
BBX 7 12 0 -3
VVECTOR 4 9
SWIDTH1 0 -1000
DWIDTH1 0 -12
BITMAP 
0C
18
00
C6
C6
C6
C6
C6
7E
06
86
7C
ENDCHAR
STARTCHAR thorn
ENCODING 254
SWIDTH 750 0
DWIDTH 9 0
BBX 8 12 0 -3
VVECTOR 4 9
SWIDTH1 0 -1000
DWIDTH1 0 -12
BITMAP 
F0
60
60
7E
63
63
63
63
7E
60
60
F0
ENDCHAR
STARTCHAR ydieresis
ENCODING 255
SWIDTH 667 0
DWIDTH 8 0
BBX 7 11 0 -3
VVECTOR 4 9
SWIDTH1 0 -1000
DWIDTH1 0 -12
BITMAP 
C6
00
C6
C6
C6
C6
C6
7E
06
86
7C
ENDCHAR
STARTCHAR default
ENCODING -1
SWIDTH 750 0
DWIDTH 9 0
BBX 7 10 1 -2
VVECTOR 5 9
SWIDTH1 0 -1000
DWIDTH1 0 -12
BITMAP 
FE
C6
C6
C6
C6
C6
C6
C6
C6
FE
ENDCHAR
ENDFONT
